<svg width="16" height="16" viewBox="0 0 16 16" fill="none" xmlns="http://www.w3.org/2000/svg">
<path fill-rule="evenodd" clip-rule="evenodd" d="M7.95128 1.83675C4.63757 1.83675 1.95128 4.52304 1.95128 7.83675C1.95128 11.1505 4.63757 13.8368 7.95128 13.8368C11.265 13.8368 13.9513 11.1505 13.9513 7.83675C13.9513 4.52304 11.265 1.83675 7.95128 1.83675ZM0.61795 7.83675C0.61795 3.78666 3.9012 0.503418 7.95128 0.503418C12.0014 0.503418 15.2846 3.78666 15.2846 7.83675C15.2846 11.8868 12.0014 15.1701 7.95128 15.1701C3.9012 15.1701 0.61795 11.8868 0.61795 7.83675ZM5.47988 5.36535C5.74023 5.105 6.16234 5.105 6.42269 5.36535L7.95128 6.89394L9.47988 5.36535C9.74023 5.105 10.1623 5.105 10.4227 5.36535C10.683 5.6257 10.683 6.04781 10.4227 6.30816L8.89409 7.83675L10.4227 9.36535C10.683 9.6257 10.683 10.0478 10.4227 10.3082C10.1623 10.5685 9.74023 10.5685 9.47988 10.3082L7.95128 8.77956L6.42269 10.3082C6.16234 10.5685 5.74023 10.5685 5.47988 10.3082C5.21953 10.0478 5.21953 9.6257 5.47988 9.36535L7.00847 7.83675L5.47988 6.30816C5.21953 6.04781 5.21953 5.6257 5.47988 5.36535Z" fill="#EF233C"/>
</svg>
