<svg width="16" height="16" viewBox="0 0 16 16" fill="none" xmlns="http://www.w3.org/2000/svg">
<path fill-rule="evenodd" clip-rule="evenodd" d="M8 2.00008C4.6863 2.00008 2.00001 4.68637 2.00001 8.00008C2.00001 11.3138 4.6863 14.0001 8 14.0001C11.3137 14.0001 14 11.3138 14 8.00008C14 4.68637 11.3137 2.00008 8 2.00008ZM0.666672 8.00008C0.666672 3.94999 3.94992 0.666748 8 0.666748C12.0501 0.666748 15.3333 3.94999 15.3333 8.00008C15.3333 12.0502 12.0501 15.3334 8 15.3334C3.94992 15.3334 0.666672 12.0502 0.666672 8.00008ZM11.4714 5.52868C11.7318 5.78903 11.7318 6.21114 11.4714 6.47149L7.47141 10.4715C7.21106 10.7318 6.78895 10.7318 6.5286 10.4715L4.5286 8.47149C4.26825 8.21114 4.26825 7.78903 4.5286 7.52868C4.78895 7.26833 5.21106 7.26833 5.47141 7.52868L7 9.05727L10.5286 5.52868C10.7889 5.26833 11.2111 5.26833 11.4714 5.52868Z" fill="#2DC653"/>
</svg>
